<svg xmlns="http://www.w3.org/2000/svg" viewBox="0 0 105.98 83.75"><defs><style>.cls-1{font-size:16px;font-family:SukhumvitSet-Medium, Sukhumvit Set;}.cls-1,.cls-4{fill:#fff;}.cls-2{letter-spacing:-0.01em;}.cls-3{letter-spacing:0em;}.cls-5{fill:#da4f35;}</style></defs><title>Asset 8</title><g id="Layer_2" data-name="Layer 2"><g id="smart_reflex" data-name="smart reflex"><text class="cls-1" transform="translate(0 76.92)">SMA<tspan class="cls-2" x="31.17" y="0">R</tspan><tspan class="cls-3" x="40.45" y="0">T REFL</tspan><tspan class="cls-2" x="87.49" y="0">E</tspan><tspan x="96.06" y="0">X</tspan></text><rect class="cls-4" x="26.21" width="53" height="53" rx="9.01" ry="9.01"/><path class="cls-5" d="M41.35,42.77h.43v.35H41.5l-.2.2v.51l.15.15h.33v.32h-.5L41,44v-.81Zm.17,2.49h.26v.35h-.41L41,45.19v-.52h.35v.38Zm1.2-2.09v.4h-.35v-.25l-.2-.2h-.23v-.35h.39Zm-.78,1.13V44h.49l.32.31v.9l-.42.42h-.39v-.35h.24l.22-.21v-.59l-.15-.16Z"/><path class="cls-5" d="M43.17,42.77h.34v2.84h-.34Zm1,1.12.51-1v.66l-.43.79H44.1l-.43-.79V42.9Zm1,1.72h-.34V42.77h.34Z"/><path class="cls-5" d="M45.52,45.61,46.23,43l.15.58-.28,1.11h.57l.07.26H46l-.19.71Zm.83-2.84h.38l.74,2.84H47.1Z"/><path class="cls-5" d="M47.77,42.77h.35v2.84h-.35Zm.51.35v-.35h.83l.39.4V44l-.38.38h-.84v-.31H49l.2-.2v-.55l-.2-.2Zm.34,1.42H49l.47,1.07h-.36Z"/><path class="cls-5" d="M51.58,43.1H49.65v-.33h1.93Zm-1.14,2.51V43.26h.35v2.35Z"/><path class="cls-5" d="M52.83,42.72h.35v2.85h-.35Zm.52.35v-.35h.82l.4.4V44l-.39.38h-.83V44H54l.21-.21v-.54L54,43.07Zm.33,1.43H54l.47,1.07h-.36Z"/><path class="cls-5" d="M55,42.72h.35v2.85H55Zm1.7.35H55.49v-.35h1.19Zm-1.19,1.15v-.3h.81v.3Zm0,1.35v-.35h1.2v.35Z"/><path class="cls-5" d="M57.07,42.72h.35v2.85h-.35Zm1.7.35H57.58v-.35h1.19Zm-1.19,1.22V44h.92v.31Z"/><path class="cls-5" d="M59.41,45.05h-.35V42.72h.35Zm-.35.52v-.35h1.68v.35Z"/><path class="cls-5" d="M61.06,42.72h.36v2.85h-.36Zm1.71.35H61.58v-.35h1.19Zm-1.19,1.15v-.3h.81v.3Zm0,1.35v-.35h1.2v.35Z"/><path class="cls-5" d="M63,45.57l.71-1.3.17.32-.52,1Zm2,0h-.37l-1.52-2.85h.37Zm-.7-1.67-.17-.31.46-.87h.35Z"/><path class="cls-5" d="M67.77,8.54a5.3,5.3,0,0,1-2.45,5,7.67,7.67,0,0,1-3.19,1.31L38.65,19a9.14,9.14,0,0,1,3.66-5.3,8.72,8.72,0,0,1,3.4-1.34Z"/><path class="cls-5" d="M38.65,22.62a5.63,5.63,0,0,0,6.65,4.11L60.65,24s1.58-.47,1.74,1.11,0,1.58-1.11,2.21l-17.41,3A7.18,7.18,0,0,0,38.34,37l23.57-4.28a8.12,8.12,0,0,0,6.17-7.27s.63-3.87-2.45-5.91a5.66,5.66,0,0,0-4.09-.83Z"/><path class="cls-5" d="M41.48,17.07l20.26-3.42a5.71,5.71,0,0,0,2.62-1.16,3.22,3.22,0,0,0,1.34-2.25L46.08,13.65A6.84,6.84,0,0,0,41.48,17.07Z"/><path class="cls-5" d="M42.1,23.66l19.37-3.33a4.57,4.57,0,0,1,2.4.23,4.26,4.26,0,0,1,2.6,3.69,5.74,5.74,0,0,1-3.86,6.69l-21,3.86s.15-2.38,3.27-3.27l16.64-3A3.18,3.18,0,0,0,64,24.77c-.09-.45-.09-.24-.27-.66-.3-.68-1-1.46-2.78-1.2L47.45,25.44S43.89,26.33,42.1,23.66Z"/></g></g></svg>